<?xml version="1.0" encoding="utf-8"?>
<!-- Generator: Adobe Illustrator 19.0.0, SVG Export Plug-In . SVG Version: 6.00 Build 0)  -->
<svg version="1.1" id="图层_1" xmlns="http://www.w3.org/2000/svg" xmlns:xlink="http://www.w3.org/1999/xlink" x="0px" y="0px"
	 viewBox="0 0 12 12" style="enable-background:new 0 0 12 12;" xml:space="preserve">
<style type="text/css">
	.st0{opacity:0.8;fill:#AAAAAA;}
</style>
<path id="XMLID_8_" class="st0" d="M6,0C3.2,0,0.9,2.2,0.9,5c0,1.4,0.7,2.6,1.5,3.6C3.3,9.5,6,12,6,12s2.7-2.5,3.5-3.5
	c0.9-1,1.5-2.2,1.5-3.6C11.1,2.2,8.8,0,6,0z M6,6.6c-1,0-1.8-0.8-1.8-1.8C4.2,3.8,5,3,6,3c1,0,1.8,0.8,1.8,1.8C7.8,5.8,7,6.6,6,6.6z
	"/>
</svg>
