<?xml version="1.0" encoding="utf-8"?>
<!-- Generator: Adobe Illustrator 19.0.0, SVG Export Plug-In . SVG Version: 6.00 Build 0)  -->
<svg version="1.1" id="图层_1" xmlns="http://www.w3.org/2000/svg" xmlns:xlink="http://www.w3.org/1999/xlink" x="0px" y="0px"
	 viewBox="0 0 70 70" style="enable-background:new 0 0 70 70;" xml:space="preserve">
<style type="text/css">
	.st0{fill:#34a263;}
</style>
<path id="XMLID_4_" class="st0" d="M35,1c18.7,0,34,15.3,34,34S53.7,69,35,69S1,53.7,1,35S16.3,1,35,1 M35,0C15.7,0,0,15.7,0,35
	s15.7,35,35,35c19.3,0,35-15.7,35-35S54.3,0,35,0L35,0z"/>
<path id="XMLID_8_" class="st0" d="M25.1,24.6v9H30c0,4.2-2,7.6-6.1,10l2.2,2.9c5.5-3.2,8.2-8,8-14.1v-7.8H25.1z M37.1,24.6v9H42
	c0,4.2-2,7.6-6.1,10l2.4,2.9c5.5-3.1,8.1-7.8,7.8-14.1v-7.8H37.1z"/>
</svg>
