<?xml version="1.0" encoding="utf-8"?>
<!-- Generator: Adobe Illustrator 17.0.0, SVG Export Plug-In . SVG Version: 6.00 Build 0)  -->
<!DOCTYPE svg PUBLIC "-//W3C//DTD SVG 1.1//EN" "http://www.w3.org/Graphics/SVG/1.1/DTD/svg11.dtd">
<svg version="1.1" id="图层_1" xmlns="http://www.w3.org/2000/svg" xmlns:xlink="http://www.w3.org/1999/xlink" x="0px" y="0px"
	 width="56px" height="64px" viewBox="0 0 56 64" enable-background="new 0 0 56 64" xml:space="preserve">
<g>
	<g>
		<g>
			<g>
				<path fill="#2A6AB4" d="M40,0H8C3.582,0,0,3.582,0,8v48c0,4.418,3.582,8,8,8h40c4.418,0,8-3.582,8-8V16L40,0z"/>
			</g>
			<g>
				<path fill="#9BBDDE" d="M40,8c0,4.418,3.582,8,8,8h8L40,0V8z"/>
			</g>
		</g>
	</g>
</g>
<g>
	<path fill="#FFFFFF" d="M12.011,26.524h4.227c0.953,0,1.68,0.073,2.18,0.219c0.672,0.198,1.247,0.55,1.727,1.055
		c0.479,0.505,0.844,1.124,1.094,1.855c0.25,0.732,0.375,1.634,0.375,2.707c0,0.943-0.117,1.755-0.352,2.438
		c-0.287,0.833-0.695,1.508-1.227,2.023c-0.401,0.391-0.943,0.695-1.625,0.914c-0.511,0.162-1.193,0.242-2.047,0.242h-4.352V26.524z
		 M14.323,28.461v7.586h1.727c0.646,0,1.112-0.036,1.398-0.109c0.375-0.094,0.686-0.252,0.934-0.477
		c0.247-0.224,0.449-0.592,0.605-1.105c0.156-0.513,0.234-1.212,0.234-2.098c0-0.885-0.078-1.565-0.234-2.039
		c-0.156-0.474-0.375-0.844-0.656-1.109s-0.638-0.445-1.07-0.539c-0.323-0.073-0.956-0.109-1.898-0.109H14.323z"/>
	<path fill="#FFFFFF" d="M22.305,32.32c0-1.167,0.174-2.146,0.523-2.937c0.26-0.583,0.616-1.106,1.066-1.57
		c0.45-0.463,0.944-0.807,1.48-1.031c0.713-0.302,1.536-0.453,2.469-0.453c1.688,0,3.038,0.523,4.051,1.57
		c1.013,1.047,1.52,2.503,1.52,4.367c0,1.849-0.503,3.296-1.508,4.34c-1.005,1.044-2.349,1.566-4.031,1.566
		c-1.703,0-3.058-0.52-4.063-1.559C22.807,35.574,22.305,34.144,22.305,32.32z M24.688,32.242c0,1.297,0.299,2.28,0.898,2.949
		c0.599,0.669,1.359,1.004,2.281,1.004s1.678-0.332,2.27-0.996c0.591-0.664,0.887-1.66,0.887-2.988c0-1.312-0.288-2.292-0.863-2.937
		c-0.576-0.646-1.34-0.969-2.293-0.969s-1.722,0.327-2.305,0.98C24.979,29.939,24.688,30.925,24.688,32.242z"/>
	<path fill="#FFFFFF" d="M41.747,33.766l2.242,0.711c-0.344,1.25-0.916,2.179-1.715,2.785c-0.8,0.607-1.814,0.91-3.043,0.91
		c-1.521,0-2.771-0.52-3.75-1.559c-0.979-1.039-1.469-2.459-1.469-4.262c0-1.906,0.492-3.387,1.477-4.441s2.278-1.582,3.883-1.582
		c1.401,0,2.539,0.414,3.414,1.242c0.521,0.49,0.911,1.193,1.172,2.109l-2.289,0.547c-0.136-0.594-0.418-1.063-0.848-1.406
		s-0.952-0.516-1.566-0.516c-0.849,0-1.538,0.305-2.066,0.914c-0.529,0.609-0.793,1.597-0.793,2.961c0,1.448,0.26,2.479,0.781,3.094
		c0.521,0.615,1.198,0.922,2.031,0.922c0.614,0,1.143-0.195,1.586-0.586C41.236,35.219,41.554,34.605,41.747,33.766z"/>
</g>
</svg>
