<?xml version="1.0" encoding="utf-8"?>
<!-- Generator: Adobe Illustrator 17.0.0, SVG Export Plug-In . SVG Version: 6.00 Build 0)  -->
<!DOCTYPE svg PUBLIC "-//W3C//DTD SVG 1.1//EN" "http://www.w3.org/Graphics/SVG/1.1/DTD/svg11.dtd">
<svg version="1.1" id="图层_1" xmlns="http://www.w3.org/2000/svg" xmlns:xlink="http://www.w3.org/1999/xlink" x="0px" y="0px"
	 width="56px" height="64px" viewBox="0 0 56 64" enable-background="new 0 0 56 64" xml:space="preserve">
<g>
	<g>
		<g>
			<g>
				<path fill="#F29A80" d="M40,0H8C3.582,0,0,3.582,0,8v48c0,4.418,3.582,8,8,8h40c4.418,0,8-3.582,8-8V16L40,0z"/>
			</g>
			<g>
				<path fill="#F8CABB" d="M40,8c0,4.418,3.582,8,8,8h8L40,0V8z"/>
			</g>
		</g>
	</g>
</g>
<g>
	<path fill="#FFFFFF" d="M13.753,37.727V26.273h3.711c1.406,0,2.323,0.058,2.75,0.172c0.656,0.172,1.206,0.546,1.648,1.121
		c0.442,0.576,0.664,1.319,0.664,2.23c0,0.703-0.128,1.294-0.383,1.773c-0.255,0.479-0.58,0.855-0.973,1.129
		c-0.394,0.273-0.793,0.455-1.199,0.543c-0.552,0.109-1.352,0.164-2.398,0.164h-1.508v4.32H13.753z M16.066,28.211v3.25h1.266
		c0.911,0,1.521-0.06,1.828-0.18c0.307-0.12,0.548-0.307,0.723-0.563c0.174-0.255,0.262-0.552,0.262-0.891
		c0-0.417-0.123-0.76-0.367-1.031c-0.245-0.271-0.555-0.44-0.93-0.508c-0.276-0.052-0.831-0.078-1.664-0.078H16.066z"/>
	<path fill="#FFFFFF" d="M23.617,26.273h4.227c0.953,0,1.68,0.073,2.18,0.219c0.672,0.198,1.247,0.55,1.727,1.055
		c0.479,0.505,0.844,1.124,1.094,1.855c0.25,0.732,0.375,1.634,0.375,2.707c0,0.943-0.117,1.755-0.352,2.438
		c-0.287,0.833-0.695,1.508-1.227,2.023c-0.401,0.391-0.943,0.695-1.625,0.914c-0.511,0.162-1.193,0.242-2.047,0.242h-4.352V26.273z
		 M25.93,28.211v7.586h1.727c0.646,0,1.112-0.036,1.398-0.109c0.375-0.094,0.686-0.252,0.934-0.477
		c0.247-0.224,0.449-0.592,0.605-1.105c0.156-0.513,0.234-1.212,0.234-2.098c0-0.885-0.078-1.565-0.234-2.039
		c-0.156-0.474-0.375-0.844-0.656-1.109s-0.638-0.445-1.07-0.539c-0.323-0.073-0.956-0.109-1.898-0.109H25.93z"/>
	<path fill="#FFFFFF" d="M34.395,37.727V26.273h7.852v1.938h-5.539v2.711h4.781v1.938h-4.781v4.867H34.395z"/>
</g>
</svg>
